Coordinates
version=1
nRows=12
nColumns=24
inDegrees=yes

Units are S.I. units (second, meters, Newtons, ...)
Angles are in degrees.

endheader
time	pelvis_tilt	pelvis_list	pelvis_rotation	pelvis_tx	pelvis_ty	pelvis_tz	hip_flexion_r	hip_adduction_r	hip_rotation_r	knee_angle_r	ankle_angle_r	subtalar_angle_r	mtp_angle_r	hip_flexion_l	hip_adduction_l	hip_rotation_l	knee_angle_l	ankle_angle_l	subtalar_angle_l	mtp_angle_l	lumbar_extension	lumbar_bending	lumbar_rotation
      0.70016667	      1.20127240	     -3.89635346	     -2.85825574	     -0.53485062	      1.01446718	      0.31178598	     11.10119479	      6.56986767	     -4.17452964	    -16.97113558	     -0.33490418	    -11.17019388	     -0.91427180	     18.52893763	     -9.30512046	     -8.39631681	    -74.16467811	      1.43032234	    -15.19854652	     -4.94018415	    -14.57167385	      5.96285395	      6.74115835
      0.70433333	      1.23150780	     -3.78760752	     -2.93646049	     -0.52940787	      1.01548782	      0.31212396	     10.58233854	      6.48162296	     -4.04710284	    -16.68802477	     -0.26634061	    -11.16616169	     -0.90668763	     19.11949644	     -9.16350549	     -8.40066589	    -74.00119562	      1.71975906	    -15.18623867	     -5.00074785	    -14.61417522	      5.81719136	      6.82277276
      0.70850000	      1.24163450	     -3.69854275	     -3.00753402	     -0.52389472	      1.01646903	      0.31246990	     10.06593675	      6.41498606	     -3.92709738	    -16.37564174	     -0.17183916	    -11.14704098	     -0.90306274	     19.71186228	     -9.04825480	     -8.41049952	    -73.75752348	      1.92464791	    -15.17618544	     -5.02607532	    -14.61027819	      5.69641724	      6.88248535
      0.71266667	      1.31353926	     -3.57276040	     -3.08762571	     -0.51844500	      1.01753565	      0.31279489	      9.49472122	      6.30108726	     -3.80236955	    -16.07023258	     -0.14962551	    -11.12440716	     -0.89708198	     20.20892359	     -8.88391235	     -8.44476930	    -73.42590610	      2.23191093	    -15.06208220	     -5.09981795	    -14.70649395	      5.51089322	      7.05400553
      0.71683333	      1.49278196	     -3.45190156	     -3.23390016	     -0.51289161	      1.01882222	      0.31335205	      8.77092289	      6.21191039	     -3.57171631	    -15.70711538	     -0.07909499	    -11.12620419	     -0.88625416	     20.51869917	     -8.77305090	     -8.59794646	    -72.96430911	      2.39733728	    -15.01548215	     -5.29015166	    -14.90489456	      5.29619692	      7.30737174
      0.72100000	      1.48407438	     -3.36027791	     -3.30229966	     -0.50740593	      1.01969307	      0.31361903	      8.27722325	      6.13158657	     -3.45478506	    -15.38477667	     -0.05602774	    -11.12067704	     -0.88531215	     21.07695071	     -8.64150044	     -8.63261339	    -72.50668310	      2.61832620	    -15.03898445	     -5.34021015	    -14.89128159	      5.18068538	      7.35757013
      0.72516667	      1.63792068	     -3.23243851	     -3.42411528	     -0.50185383	      1.02087882	      0.31408480	      7.58279613	      6.01967006	     -3.26330230	    -15.01960863	     -0.00074490	    -11.11918019	     -0.88633807	     21.38233742	     -8.50503070	     -8.77629728	    -71.90488414	      2.76090986	    -15.01359608	     -5.52246506	    -15.06190512	      4.95983222	      7.54447287
      0.72933333	      1.70570793	     -3.12226148	     -3.52464069	     -0.49630351	      1.02186473	      0.31445215	      6.98982190	      5.91998669	     -3.11053041	    -14.66767767	      0.01806492	    -11.12819133	     -0.89353632	     21.77935100	     -8.37205642	     -8.88871460	    -71.26227001	      2.92276871	    -15.02825408	     -5.69796068	    -15.12570111	      4.80305122	      7.65693491
      0.73350000	      1.67800551	     -3.04521338	     -3.58454458	     -0.49075849	      1.02261039	      0.31470529	      6.50457573	      5.84832833	     -3.01727629	    -14.32412715	      0.02571245	    -11.10602296	     -0.89747137	     22.28976181	     -8.25954038	     -8.94832709	    -70.59918460	      3.11363231	    -15.05322797	     -5.74520032	    -15.07859763	      4.69237931	      7.70587513
      0.73766667	      1.87676253	     -2.91919313	     -3.70960885	     -0.48517948	      1.02378511	      0.31515281	      5.75295099	      5.72468312	     -2.83620077	    -13.93916831	      0.07574730	    -11.10267366	     -0.91614005	     22.46536884	     -8.12332004	     -9.13751556	    -69.77131099	      3.20218115	    -15.08943327	     -5.91148967	    -15.29376557	      4.47607153	      7.86587250
      0.74183333	      1.95723046	     -2.81836864	     -3.80579077	     -0.47959604	      1.02468917	      0.31551287	      5.13740985	      5.62558482	     -2.69840599	    -13.56962983	      0.09434085	    -11.09777630	     -0.94005480	     22.77262025	     -8.00336015	     -9.28088999	    -68.92057237	      3.33302091	    -15.09873455	     -6.07364492	    -15.36823792	      4.31359232	      7.98142662
      0.74600000	      2.02934286	     -2.72840437	     -3.89305420	     -0.47400539	      1.02552737	      0.31585369	      4.52877433	      5.53503639	     -2.57401453	    -13.19652092	      0.11444421	    -11.09194097	     -0.96759881	     23.06976434	     -7.89201991	     -9.42080458	    -68.01295132	      3.44831588	    -15.12792335	     -6.22251925	    -15.43450424	      4.15538950	      8.07855272
